HIERARCHY
ROOT Hips
{
	OFFSET -3.958830 18.904000 13.208200
	CHANNELS 6 Xposition Yposition Zposition Zrotation Yrotation Xrotation 
	JOINT LHipJoint
	{
		OFFSET 0.000000 0.000000 0.000000
		CHANNELS 3 Zrotation Yrotation Xrotation
		JOINT LeftUpLeg
		{
			OFFSET 1.800000 -1.400000 0.085000
			CHANNELS 3 Zrotation Yrotation Xrotation
			JOINT LeftLeg
			{
				OFFSET 2.215000 -6.000000 0.000000
				CHANNELS 3 Zrotation Yrotation Xrotation
				JOINT LeftFoot
				{
					OFFSET 2.500000 -6.900000 0.000000
					CHANNELS 3 Zrotation Yrotation Xrotation
					JOINT LeftToeBase
					{
						OFFSET 0.200000 -0.500000 1.950000
						CHANNELS 3 Zrotation Yrotation Xrotation
						End Site
						{
							OFFSET 0.000000 0.000000 0.000000
						}
					}
				}
			}
		}
	}
	JOINT RHipJoint
	{
		OFFSET 0.000000 0.000000 0.000000
		CHANNELS 3 Zrotation Yrotation Xrotation
		JOINT RightUpLeg
		{
			OFFSET -1.800000 -1.400000 0.085000
			CHANNELS 3 Zrotation Yrotation Xrotation
			JOINT RightLeg
			{
				OFFSET -2.215000 -6.000000 0.000000
				CHANNELS 3 Zrotation Yrotation Xrotation
				JOINT RightFoot
				{
					OFFSET -2.500000 -6.900000 0.000000
					CHANNELS 3 Zrotation Yrotation Xrotation
					JOINT RightToeBase
					{
						OFFSET -0.200000 -0.500000 1.950000
						CHANNELS 3 Zrotation Yrotation Xrotation
						End Site
						{
							OFFSET 0.000000 0.000000 0.000000
						}
					}
				}
			}
		}
	}
	JOINT LowerBack
	{
		OFFSET 0.000000 0.000000 0.000000
		CHANNELS 3 Zrotation Yrotation Xrotation
		JOINT Spine
		{
			OFFSET -0.087000 1.940000 -0.288900
			CHANNELS 3 Zrotation Yrotation Xrotation
			JOINT Spine1
			{
				OFFSET 0.000000 1.950000 0.060000
				CHANNELS 3 Zrotation Yrotation Xrotation
				JOINT Neck
				{
					OFFSET 0.000000 0.000000 0.000000
					CHANNELS 3 Zrotation Yrotation Xrotation
					JOINT Neck1
					{
						OFFSET 0.000000 1.600000 0.340000
						CHANNELS 3 Zrotation Yrotation Xrotation
						JOINT Head
						{
							OFFSET 0.000000 1.667000 -0.240000
							CHANNELS 3 Zrotation Yrotation Xrotation
							End Site
							{
								OFFSET 0.000000 0.000000 0.000000
							}
						}
					}
				}
				JOINT LeftShoulder
				{
					OFFSET 0.000000 0.000000 0.000000
					CHANNELS 3 Zrotation Yrotation Xrotation
					JOINT LeftArm
					{
						OFFSET 2.700000 1.550000 -0.730000
						CHANNELS 3 Zrotation Yrotation Xrotation
						JOINT LeftForeArm
						{
							OFFSET 5.450000 0.000000 0.000000
							CHANNELS 3 Zrotation Yrotation Xrotation
							JOINT LeftHand
							{
								OFFSET 3.450000 0.000000 0.000000
								CHANNELS 3 Zrotation Yrotation Xrotation
								JOINT LeftHandIndex1
								{
									OFFSET 0.750000 0.000000 0.000000
									CHANNELS 3 Zrotation Yrotation Xrotation
									End Site
									{
										OFFSET 0.000000 0.000000 0.000000
									}
								}
							}
						}
					}
				}
				JOINT RightShoulder
				{
					OFFSET 0.000000 0.000000 0.000000
					CHANNELS 3 Zrotation Yrotation Xrotation
					JOINT RightArm
					{
						OFFSET -2.700000 1.550000 -0.730000
						CHANNELS 3 Zrotation Yrotation Xrotation
						JOINT RightForeArm
						{
							OFFSET -5.450000 0.000000 0.000000
							CHANNELS 3 Zrotation Yrotation Xrotation
							JOINT RightHand
							{
								OFFSET -3.450000 0.000000 0.000000
								CHANNELS 3 Zrotation Yrotation Xrotation
								JOINT RightHandIndex1
								{
									OFFSET -0.750000 0.000000 0.000000
									CHANNELS 3 Zrotation Yrotation Xrotation
									End Site
									{
										OFFSET 0.000000 0.000000 0.000000
									}
								}
							}
						}
					}
				}
			}
		}
	}
}
MOTION
Frames: 11
Frame Time: 0.016667
0.426690 16.289330 -2.247670 -2.499993 15.211756 8.625926 -15.045022 12.498773 2.882107 7.413170 -2.410598 -18.110195 -7.288424 3.987035 3.238732 -0.519157 3.857710 3.607588 -0.406150 -0.820670 -0.356860 18.502736 -10.832938 2.594427 -4.675404 1.190781 -13.500852 5.581556 -3.771945 5.872528 0.301079 -3.438518 3.322096 -0.233170 1.059550 0.230960 -4.272429 -0.564618 -6.609732 9.907731 0.695650 -0.576307 -1.673206 0.386921 -2.341995 -1.490873 -7.259777 -4.827864 -11.885828 9.150594 19.229378 -0.867970 3.083990 8.253910 -12.144093 10.063784 -0.318007 -76.287222 -0.493600 -3.107295 -5.126216 -12.286067 -1.424547 -4.587409 2.670843 0.020840 0.638270 -0.659550 0.128420 14.624873 -3.707346 0.070872 68.013214 4.403203 -4.035212 10.804228 13.413042 -0.499128 2.443465 -1.360589 -0.526600 0.261750 0.420480 0.028590 
0.425410 16.291260 -2.249060 -2.427445 15.266468 8.649080 -15.045320 12.510759 2.891526 7.351488 -2.422612 -18.202307 -7.343203 4.009372 3.348863 -0.519790 3.845099 3.605414 -0.399680 -0.812870 -0.344400 18.499014 -10.838583 2.588261 -4.701766 1.200905 -13.607476 5.519262 -3.779399 6.071178 0.300427 -3.418253 3.326958 -0.232250 1.043410 0.225600 -4.270054 -0.580815 -6.615467 9.926091 0.654719 -0.497406 -1.807014 0.363853 -2.332981 -1.439001 -7.345351 -4.886015 -12.064202 9.162666 19.416650 -0.975140 3.147960 8.100880 -11.745234 10.218782 -0.304351 -76.501196 -0.506816 -3.105768 -5.167754 -12.412508 -1.418933 -4.574448 2.664573 0.028550 0.627580 -0.649990 0.123670 14.113749 -3.795556 0.133018 68.520390 4.459176 -4.042804 11.143003 13.750532 -0.449042 2.444610 -1.357664 -0.523960 0.260240 0.414230 0.023550 
0.424070 16.294640 -2.251160 -2.469272 15.318333 8.628960 -15.036433 12.520973 2.898778 7.398074 -2.424680 -18.332266 -7.364204 4.038318 3.543430 -0.522154 3.818543 3.601776 -0.377950 -0.787480 -0.313470 18.502715 -10.861481 2.585056 -4.537799 1.217789 -13.760412 5.310655 -3.769287 6.398152 0.290793 -3.375130 3.335862 -0.224980 1.007490 0.217460 -4.293944 -0.558661 -6.626538 10.264976 0.617144 -0.366093 -2.239803 0.338001 -2.347520 -1.222104 -7.450212 -4.924241 -12.283826 9.198338 19.859386 -1.172780 3.337900 7.688320 -11.172893 10.646506 -0.391334 -76.736685 -0.557353 -3.040069 -5.077569 -12.528497 -1.416341 -4.547556 2.649893 0.047780 0.603650 -0.624540 0.118630 13.055275 -4.137486 0.197592 69.502921 4.664389 -3.890826 11.988741 14.173250 -0.324942 2.448258 -1.355712 -0.517050 0.257350 0.395480 0.013020 
0.422770 16.299000 -2.256250 -2.546906 15.490583 8.516694 -15.019575 12.523451 2.908454 7.511894 -2.417072 -18.466519 -7.435522 4.085476 3.758903 -0.531423 3.793385 3.595457 -0.361360 -0.768810 -0.274970 18.512024 -10.897309 2.587876 -4.337516 1.223142 -13.861434 5.091521 -3.766785 6.721141 0.278573 -3.325032 3.349420 -0.222240 0.962910 0.197910 -4.342064 -0.499933 -6.654481 10.845522 0.584672 -0.162308 -2.999385 0.315705 -2.325244 -0.812890 -7.490357 -4.990818 -12.425744 9.099954 20.816522 -1.478430 3.561950 7.218590 -10.806429 10.884868 -0.535541 -76.593541 -0.809283 -2.832500 -4.936776 -12.479393 -1.401639 -4.513546 2.618922 0.080720 0.571410 -0.594250 0.105650 11.780315 -4.332093 0.371647 70.892040 5.017174 -3.657588 12.822316 14.732478 -0.170009 2.449979 -1.339770 -0.518720 0.263060 0.378630 -0.005930 
0.420110 16.303810 -2.264390 -2.679131 15.680654 8.286802 -14.995915 12.522387 2.913357 7.675569 -2.396841 -18.594138 -7.473264 4.142444 4.077718 -0.542228 3.765897 3.586735 -0.336900 -0.743060 -0.222410 18.525372 -10.948316 2.600052 -4.108439 1.216729 -13.891937 4.907060 -3.780636 7.022773 0.254684 -3.275353 3.360972 -0.219230 0.909340 0.183930 -4.409105 -0.402894 -6.695814 11.568639 0.620908 0.114838 -3.927630 0.358029 -2.185939 -0.230487 -7.364778 -5.096651 -12.304558 8.856199 22.233811 -1.870550 3.830700 6.506880 -10.656468 10.773997 -0.690455 -76.179721 -1.322103 -2.487454 -4.762433 -12.254187 -1.383132 -4.475503 2.583819 0.124220 0.534070 -0.549310 0.091640 10.365519 -4.277152 0.654590 72.522323 5.520694 -3.361137 13.537870 15.342349 -0.008191 2.448094 -1.319339 -0.516200 0.270430 0.356810 -0.028090 
0.417770 16.308220 -2.273940 -2.814864 15.877208 7.986210 -14.967477 12.513957 2.914655 7.818010 -2.370659 -18.688024 -7.489737 4.203581 4.492734 -0.568278 3.738667 3.568162 -0.304670 -0.711890 -0.161670 18.540495 -11.019304 2.619741 -3.926369 1.199501 -13.840179 4.743134 -3.814768 7.292122 0.221780 -3.240856 3.360949 -0.211710 0.843060 0.179660 -4.488450 -0.253116 -6.747671 12.310506 0.732843 0.428857 -4.945527 0.473478 -1.945571 0.551293 -6.965685 -5.212625 -11.689634 8.467019 24.008556 -2.503340 4.259310 5.563050 -10.712522 10.381348 -0.849922 -75.487783 -1.978898 -2.092944 -4.668508 -12.058361 -1.365653 -4.437755 2.557891 0.178620 0.495710 -0.496080 0.072910 8.763625 -4.091643 0.988505 74.365190 6.230877 -2.887026 14.238593 15.808545 0.159859 2.433857 -1.306020 -0.511390 0.268560 0.337390 -0.060060 
0.414640 16.312180 -2.283700 -2.953543 16.112678 7.654420 -14.928226 12.474633 2.906495 7.987079 -2.338761 -18.775117 -7.526770 4.270220 4.939014 -0.592108 3.707568 3.550590 -0.269990 -0.668010 -0.108840 18.567601 -11.110502 2.648494 -3.778779 1.169190 -13.731926 4.706356 -3.863547 7.456690 0.187818 -3.231386 3.353362 -0.195100 0.781730 0.175330 -4.601739 -0.008784 -6.798981 13.155931 0.925211 0.675289 -6.268422 0.652427 -1.598359 1.478041 -6.290242 -5.256241 -10.513513 7.952470 25.842054 -3.035490 4.624300 4.672180 -11.190786 9.654070 -1.066078 -74.162104 -2.870177 -1.562862 -4.570707 -11.299321 -1.318762 -4.410143 2.541259 0.219860 0.464770 -0.447400 0.057320 7.285490 -3.766133 1.316107 76.393854 7.079370 -2.247010 14.619911 15.883590 0.244991 2.417431 -1.302810 -0.502660 0.265820 0.316150 -0.086020 
0.413180 16.316480 -2.292330 -3.080824 16.471295 7.273145 -14.885880 12.417433 2.889863 8.125331 -2.305654 -18.800190 -7.546668 4.331728 5.382294 -0.606768 3.679088 3.534416 -0.239170 -0.629470 -0.057080 18.598776 -11.214820 2.683263 -3.695637 1.115185 -13.487621 4.769510 -3.931087 7.500413 0.152642 -3.252235 3.332843 -0.182220 0.725180 0.181680 -4.728267 0.293134 -6.847905 14.004135 1.177216 0.835681 -7.611119 0.892842 -1.102793 2.511676 -5.363617 -5.324460 -8.832834 7.238131 27.629036 -3.752160 5.027320 4.078990 -12.026361 8.516764 -1.169713 -72.485053 -3.774908 -1.149788 -4.558595 -10.728650 -1.260890 -4.391003 2.542208 0.246550 0.444370 -0.403170 0.041740 5.983837 -3.190368 1.681298 78.219288 8.018236 -1.547387 14.703610 15.773568 0.270976 2.402650 -1.313775 -0.487080 0.251380 0.295190 -0.108770 
0.410750 16.321420 -2.300120 -3.111109 16.882830 6.881257 -14.848318 12.357511 2.866786 8.138949 -2.275447 -18.759722 -7.494279 4.375652 5.835394 -0.622652 3.645018 3.521976 -0.208560 -0.587670 -0.011280 18.625874 -11.328428 2.716636 -3.679130 1.043186 -13.182945 4.784294 -3.992919 7.510643 0.120031 -3.286880 3.310731 -0.165410 0.675960 0.191720 -4.843343 0.616275 -6.888178 14.616692 1.447776 0.957552 -8.832559 1.174065 -0.446345 3.545994 -4.235456 -5.443744 -6.746766 6.418164 29.165611 -4.417090 5.365440 3.485410 -12.982043 6.996121 -1.094867 -70.629972 -4.623127 -0.906543 -4.555145 -10.463017 -1.210788 -4.377215 2.550179 0.263440 0.432970 -0.364520 0.027640 4.867532 -2.355454 2.062627 79.827871 9.083857 -0.796405 14.603024 15.558648 0.259351 2.382127 -1.331807 -0.468980 0.236820 0.276770 -0.128340 
0.406400 16.325890 -2.308600 -3.125317 17.383642 6.483433 -14.818172 12.287824 2.839122 8.137261 -2.246746 -18.700298 -7.402866 4.392091 6.208616 -0.641827 3.605046 3.512422 -0.166640 -0.528320 0.033480 18.649729 -11.435079 2.751185 -3.651934 0.952848 -12.777380 4.769546 -4.027966 7.348298 0.083453 -3.333865 3.284717 -0.136310 0.629490 0.204970 -4.942495 0.943215 -6.920869 15.027703 1.717474 1.045180 -9.816914 1.480613 0.394078 4.508781 -2.985088 -5.612620 -4.421424 5.455143 30.302645 -5.032050 5.547950 2.731620 -14.005091 5.058397 -0.851997 -68.698854 -5.556935 -0.653208 -4.567855 -10.152511 -1.161290 -4.364210 2.570937 0.272480 0.426270 -0.327880 0.019750 4.033664 -1.182635 2.435770 80.998465 10.338151 0.046286 14.274792 15.184733 0.203512 2.357215 -1.363010 -0.446230 0.222180 0.254070 -0.143830 
0.401920 16.330220 -2.317120 -3.105245 17.851743 6.135621 -14.796382 12.220289 2.807434 8.059458 -2.222647 -18.629895 -7.245479 4.383343 6.521996 -0.648179 3.561692 3.514513 -0.128440 -0.470440 0.066310 18.668239 -11.534272 2.777163 -3.677322 0.871922 -12.435840 4.754707 -4.060305 7.258795 0.054014 -3.391490 3.257263 -0.107150 0.599700 0.223170 -5.019117 1.250812 -6.933134 15.233235 2.026865 1.060987 -10.411883 1.843422 1.321659 5.274359 -1.840068 -5.842491 -2.294597 4.417897 30.887097 -5.608020 5.521180 2.326190 -15.038962 2.902863 -0.453789 -66.995656 -6.458086 -0.424738 -4.448973 -9.844191 -1.118134 -4.359310 2.603665 0.261590 0.431530 -0.301570 0.021820 3.657093 0.308269 2.777789 81.507518 11.594453 0.844095 13.649834 14.593877 0.101753 2.341665 -1.405983 -0.419450 0.205800 0.228800 -0.147080 
